<?xml version="1.0" encoding="utf-8"?>
<!-- Generator: Adobe Illustrator 24.1.1, SVG Export Plug-In . SVG Version: 6.00 Build 0)  -->
<svg version="1.1" id="Warstwa_1" xmlns="http://www.w3.org/2000/svg" xmlns:xlink="http://www.w3.org/1999/xlink" x="0px" y="0px"
	 viewBox="0 0 1920 1080" style="enable-background:new 0 0 1920 1080;" xml:space="preserve">
<style type="text/css">
	.st0{fill:#1E1E1E;}
	.st1{fill:#00C9FF;}
</style>
<g>
	<path class="st0" d="M388.38,686.54c-24.42,10.66-50.91,15.98-79.48,15.98c-28.57,0-54.67-4.68-78.31-14.02
		c-23.63-9.36-44.17-22.62-61.57-39.74c-17.4-17.15-30.91-37.42-40.5-60.78c-9.62-23.38-14.42-49.1-14.42-77.16
		c0-28.04,4.81-53.76,14.42-77.14c9.59-23.38,23.1-43.63,40.5-60.78c17.4-17.15,37.93-30.38,61.57-39.74
		c23.63-9.34,49.74-14.02,78.31-14.02c28.57,0,55.05,5.32,79.48,15.98c24.42,10.63,46.48,26.61,66.25,47.9l65.43-61.54
		c-25.44-30.12-56.61-52.87-93.5-68.18s-77.67-23-122.34-23c-42.08,0-80.77,6.89-116.09,20.66c-35.34,13.76-66.25,33.25-92.73,58.44
		c-26.48,25.21-47.01,54.93-61.57,89.22c-14.55,34.27-21.8,71.69-21.8,112.19c0,40.53,7.25,77.93,21.8,112.22
		c14.55,34.27,34.93,64.03,61.19,89.22c26.2,25.19,57.14,44.67,92.71,58.44c35.59,13.76,74.16,20.66,115.73,20.66
		c45.18,0,86.22-7.81,123.11-23.38c36.89-15.59,68.05-38.19,93.5-67.8l-65.43-62.33C434.87,659.65,412.81,675.91,388.38,686.54z"/>
	<path class="st1" d="M988.89,577.83h-37.73l34.14,79.48h30.86L988.89,577.83z M667.06,657.31h45.44l34.01-79.48h-52.18
		L667.06,657.31z M899.26,238.1h-99.73L554.08,783.55h104.41l54.01-126.24l34.01-79.48l102.14-238.69l102.5,238.69l34.14,79.48
		l54.21,126.24h105.99L899.26,238.1z"/>
	<path class="st1" d="M1240.3,238.1v545.45h101.28V238.1H1240.3z"/>
	<path class="st0" d="M1444.15,238.1v85.74h180.78v459.72h101.31V323.83H1907V238.1H1444.15z"/>
</g>
</svg>
