<svg id="Warstwa_1" data-name="Warstwa 1" xmlns="http://www.w3.org/2000/svg" viewBox="0 0 744.85 220.53"><defs><style>.cls-1{fill:#1e1e1e;}</style></defs><path class="cls-1" d="M-2783-2768.36a77.22,77.22,0,0,1-31.24,6.28,83.09,83.09,0,0,1-30.78-5.51,71.79,71.79,0,0,1-24.2-15.62,71,71,0,0,1-15.92-23.89,79,79,0,0,1-5.67-30.33,79,79,0,0,1,5.67-30.32,70.93,70.93,0,0,1,15.92-23.89,71.64,71.64,0,0,1,24.2-15.62,83.09,83.09,0,0,1,30.78-5.51,77.22,77.22,0,0,1,31.24,6.28,77.85,77.85,0,0,1,26,18.83l25.72-24.19a95.15,95.15,0,0,0-36.75-26.8q-21.75-9-48.09-9a124.61,124.61,0,0,0-45.63,8.12,110.48,110.48,0,0,0-36.45,23,103.89,103.89,0,0,0-24.2,35.07,111.7,111.7,0,0,0-8.57,44.1,111.75,111.75,0,0,0,8.57,44.11,104.78,104.78,0,0,0,24,35.07,108.43,108.43,0,0,0,36.44,23,125,125,0,0,0,45.49,8.12q26.64,0,48.39-9.19a98,98,0,0,0,36.75-26.65l-25.72-24.5A76.15,76.15,0,0,1-2783-2768.36Z" transform="translate(2930.96 2947.69)"/><path class="cls-1" d="M-2547-2811.09h-14.83l13.42,31.24h12.13Zm-126.5,31.24h17.86l13.37-31.24h-20.51Zm91.27-164.78h-39.2l-96.48,214.4h41l21.23-49.62,13.37-31.24,40.15-93.82,40.29,93.82,13.42,31.24,21.31,49.62h41.66Z" transform="translate(2930.96 2947.69)"/><path class="cls-1" d="M-2448.17-2944.63v214.4h39.81v-214.4Z" transform="translate(2930.96 2947.69)"/><path class="cls-1" d="M-2368-2944.63v33.7H-2297v180.7h39.82v-180.7h71v-33.7Z" transform="translate(2930.96 2947.69)"/></svg>